<svg width="3300" height="2200" viewBox="0 0 3300 2200" fill="none" xmlns="http://www.w3.org/2000/svg">
<g id="cloud.fill 1" clip-path="url(#clip0_564_821)">
<g id="Notes">
<path id="artboard" d="M3300 0H0V2200H3300V0Z" fill="white"/>
<path id="Vector" d="M263 292H3036" stroke="black" stroke-width="0.5"/>
<text id="Weight/Scale Variations" fill="black" xml:space="preserve" style="white-space: pre" font-family="Inter" font-size="13" font-weight="bold" letter-spacing="0em"><tspan x="263" y="321.727">Weight/Scale Variations</tspan></text>
<text id="Ultralight" fill="black" xml:space="preserve" style="white-space: pre" font-family="Inter" font-size="13" letter-spacing="0em"><tspan x="531.211" y="321.727">Ultralight</tspan></text>
<text id="Thin" fill="black" xml:space="preserve" style="white-space: pre" font-family="Inter" font-size="13" letter-spacing="0em"><tspan x="842.922" y="321.727">Thin</tspan></text>
<text id="Light" fill="black" xml:space="preserve" style="white-space: pre" font-family="Inter" font-size="13" letter-spacing="0em"><tspan x="1137.63" y="321.727">Light</tspan></text>
<text id="Regular" fill="black" xml:space="preserve" style="white-space: pre" font-family="Inter" font-size="13" letter-spacing="0em"><tspan x="1426.34" y="321.727">Regular</tspan></text>
<text id="Medium" fill="black" xml:space="preserve" style="white-space: pre" font-family="Inter" font-size="13" letter-spacing="0em"><tspan x="1721.56" y="321.727">Medium</tspan></text>
<text id="Semibold" fill="black" xml:space="preserve" style="white-space: pre" font-family="Inter" font-size="13" letter-spacing="0em"><tspan x="2014.27" y="321.727">Semibold</tspan></text>
<text id="Bold" fill="black" xml:space="preserve" style="white-space: pre" font-family="Inter" font-size="13" letter-spacing="0em"><tspan x="2325.98" y="321.727">Bold</tspan></text>
<text id="Heavy" fill="black" xml:space="preserve" style="white-space: pre" font-family="Inter" font-size="13" letter-spacing="0em"><tspan x="2617.19" y="321.727">Heavy</tspan></text>
<text id="Black" fill="black" xml:space="preserve" style="white-space: pre" font-family="Inter" font-size="13" letter-spacing="0em"><tspan x="2916.4" y="321.727">Black</tspan></text>
<path id="Vector_2" d="M263 1903H3036" stroke="black" stroke-width="0.5"/>
<g id="Group">
<path id="Vector_3" d="M272.248 1933.83C273.329 1933.83 274.344 1933.62 275.295 1933.21C276.245 1932.8 277.084 1932.23 277.81 1931.51C278.535 1930.78 279.105 1929.94 279.519 1928.99C279.932 1928.04 280.139 1927.02 280.139 1925.95C280.139 1924.87 279.932 1923.86 279.519 1922.91C279.105 1921.96 278.534 1921.12 277.805 1920.39C277.075 1919.66 276.236 1919.09 275.285 1918.68C274.335 1918.27 273.319 1918.07 272.238 1918.07C271.164 1918.07 270.152 1918.27 269.201 1918.68C268.251 1919.09 267.414 1919.66 266.691 1920.39C265.969 1921.12 265.401 1921.96 264.987 1922.91C264.574 1923.86 264.367 1924.87 264.367 1925.95C264.367 1927.02 264.574 1928.04 264.987 1928.99C265.401 1929.94 265.97 1930.78 266.696 1931.51C267.422 1932.23 268.26 1932.8 269.211 1933.21C270.161 1933.62 271.174 1933.83 272.248 1933.83ZM272.248 1932.35C271.363 1932.35 270.534 1932.18 269.763 1931.85C268.991 1931.52 268.314 1931.07 267.731 1930.48C267.149 1929.89 266.693 1929.21 266.364 1928.44C266.035 1927.66 265.871 1926.83 265.871 1925.95C265.871 1925.06 266.034 1924.23 266.359 1923.46C266.685 1922.68 267.139 1922 267.722 1921.42C268.304 1920.83 268.981 1920.37 269.753 1920.05C270.524 1919.72 271.353 1919.55 272.238 1919.55C273.13 1919.55 273.962 1919.72 274.733 1920.05C275.505 1920.37 276.184 1920.83 276.769 1921.42C277.355 1922 277.814 1922.68 278.146 1923.46C278.478 1924.23 278.644 1925.06 278.644 1925.95C278.644 1926.83 278.48 1927.66 278.151 1928.44C277.823 1929.21 277.367 1929.89 276.784 1930.48C276.202 1931.07 275.523 1931.52 274.748 1931.85C273.973 1932.18 273.14 1932.35 272.248 1932.35ZM268.654 1925.95C268.654 1926.16 268.723 1926.34 268.859 1926.47C268.996 1926.61 269.178 1926.67 269.406 1926.67H271.516V1928.79C271.516 1929.01 271.581 1929.18 271.711 1929.32C271.841 1929.46 272.017 1929.53 272.238 1929.53C272.453 1929.53 272.631 1929.46 272.771 1929.32C272.91 1929.18 272.98 1929.01 272.98 1928.79V1926.67H275.09C275.311 1926.67 275.49 1926.61 275.627 1926.47C275.764 1926.34 275.832 1926.16 275.832 1925.95C275.832 1925.73 275.764 1925.55 275.627 1925.41C275.49 1925.28 275.311 1925.21 275.09 1925.21H272.98V1923.1C272.98 1922.88 272.91 1922.7 272.771 1922.56C272.631 1922.42 272.453 1922.35 272.238 1922.35C272.017 1922.35 271.841 1922.42 271.711 1922.56C271.581 1922.7 271.516 1922.88 271.516 1923.1V1925.21H269.406C269.178 1925.21 268.996 1925.28 268.859 1925.41C268.723 1925.55 268.654 1925.73 268.654 1925.95Z" fill="black"/>
</g>
<g id="Group_2">
<path id="Vector_4" d="M293.576 1935.91C294.937 1935.91 296.218 1935.65 297.419 1935.13C298.62 1934.61 299.679 1933.89 300.597 1932.97C301.515 1932.05 302.235 1930.99 302.756 1929.79C303.276 1928.59 303.537 1927.31 303.537 1925.95C303.537 1924.59 303.276 1923.31 302.756 1922.11C302.235 1920.91 301.515 1919.85 300.597 1918.93C299.679 1918.01 298.618 1917.29 297.414 1916.77C296.209 1916.25 294.927 1915.99 293.566 1915.99C292.205 1915.99 290.925 1916.25 289.723 1916.77C288.522 1917.29 287.464 1918.01 286.55 1918.93C285.635 1919.85 284.917 1920.91 284.396 1922.11C283.875 1923.31 283.615 1924.59 283.615 1925.95C283.615 1927.31 283.875 1928.59 284.396 1929.79C284.917 1930.99 285.636 1932.05 286.554 1932.97C287.472 1933.89 288.532 1934.61 289.733 1935.13C290.934 1935.65 292.215 1935.91 293.576 1935.91ZM293.576 1934.25C292.424 1934.25 291.346 1934.04 290.344 1933.61C289.341 1933.18 288.46 1932.58 287.702 1931.82C286.943 1931.06 286.351 1930.18 285.925 1929.18C285.498 1928.18 285.285 1927.1 285.285 1925.95C285.285 1924.8 285.498 1923.72 285.925 1922.72C286.351 1921.71 286.942 1920.83 287.697 1920.07C288.452 1919.31 289.331 1918.71 290.334 1918.29C291.336 1917.86 292.414 1917.65 293.566 1917.65C294.718 1917.65 295.796 1917.86 296.799 1918.29C297.801 1918.71 298.683 1919.31 299.445 1920.07C300.207 1920.83 300.802 1921.71 301.232 1922.72C301.662 1923.72 301.877 1924.8 301.877 1925.95C301.877 1927.1 301.664 1928.18 301.237 1929.18C300.811 1930.18 300.218 1931.06 299.46 1931.82C298.701 1932.58 297.819 1933.18 296.813 1933.61C295.807 1934.04 294.728 1934.25 293.576 1934.25ZM289.045 1925.95C289.045 1926.18 289.123 1926.38 289.279 1926.53C289.435 1926.68 289.637 1926.75 289.885 1926.75H292.756V1929.63C292.756 1929.88 292.831 1930.08 292.98 1930.23C293.13 1930.38 293.322 1930.46 293.556 1930.46C293.804 1930.46 294.004 1930.38 294.157 1930.23C294.31 1930.08 294.386 1929.88 294.386 1929.63V1926.75H297.267C297.515 1926.75 297.715 1926.68 297.868 1926.53C298.021 1926.38 298.097 1926.18 298.097 1925.95C298.097 1925.7 298.021 1925.5 297.868 1925.35C297.715 1925.2 297.515 1925.12 297.267 1925.12H294.386V1922.25C294.386 1921.99 294.31 1921.79 294.157 1921.64C294.004 1921.48 293.804 1921.41 293.556 1921.41C293.322 1921.41 293.13 1921.49 292.98 1921.64C292.831 1921.8 292.756 1922 292.756 1922.25V1925.12H289.885C289.631 1925.12 289.427 1925.2 289.274 1925.35C289.121 1925.5 289.045 1925.7 289.045 1925.95Z" fill="black"/>
</g>
<g id="Group_3">
<path id="Vector_5" d="M320.617 1938.66C322.01 1938.66 323.34 1938.45 324.606 1938.01C325.872 1937.58 327.036 1936.97 328.097 1936.19C329.158 1935.41 330.081 1934.49 330.866 1933.43C331.65 1932.37 332.259 1931.2 332.692 1929.93C333.125 1928.66 333.341 1927.34 333.341 1925.95C333.341 1924.56 333.125 1923.23 332.692 1921.96C332.259 1920.69 331.65 1919.53 330.866 1918.47C330.081 1917.41 329.158 1916.48 328.097 1915.7C327.036 1914.92 325.871 1914.31 324.601 1913.87C323.332 1913.44 322 1913.22 320.607 1913.22C319.214 1913.22 317.884 1913.44 316.618 1913.87C315.351 1914.31 314.189 1914.92 313.131 1915.7C312.073 1916.48 311.152 1917.41 310.368 1918.47C309.583 1919.53 308.976 1920.69 308.546 1921.96C308.117 1923.23 307.902 1924.56 307.902 1925.95C307.902 1927.34 308.118 1928.66 308.551 1929.93C308.984 1931.2 309.591 1932.37 310.373 1933.43C311.154 1934.49 312.075 1935.41 313.136 1936.19C314.197 1936.97 315.361 1937.58 316.627 1938.01C317.894 1938.45 319.223 1938.66 320.617 1938.66ZM320.617 1936.85C319.412 1936.85 318.265 1936.66 317.174 1936.3C316.084 1935.93 315.086 1935.41 314.181 1934.75C313.276 1934.08 312.49 1933.3 311.823 1932.39C311.155 1931.48 310.639 1930.48 310.275 1929.39C309.91 1928.3 309.728 1927.15 309.728 1925.95C309.728 1924.74 309.91 1923.59 310.275 1922.5C310.639 1921.41 311.154 1920.41 311.818 1919.5C312.482 1918.59 313.266 1917.8 314.171 1917.14C315.076 1916.48 316.074 1915.96 317.165 1915.6C318.255 1915.23 319.402 1915.05 320.607 1915.05C321.818 1915.05 322.969 1915.23 324.059 1915.6C325.15 1915.96 326.149 1916.48 327.057 1917.14C327.965 1917.8 328.751 1918.59 329.415 1919.5C330.08 1920.41 330.596 1921.41 330.963 1922.5C331.331 1923.59 331.515 1924.74 331.515 1925.95C331.522 1927.15 331.343 1928.3 330.978 1929.39C330.613 1930.48 330.098 1931.48 329.43 1932.39C328.763 1933.3 327.975 1934.08 327.067 1934.75C326.159 1935.41 325.159 1935.93 324.069 1936.3C322.978 1936.66 321.828 1936.85 320.617 1936.85ZM314.845 1925.95C314.845 1926.2 314.931 1926.41 315.104 1926.58C315.277 1926.75 315.496 1926.83 315.763 1926.83H319.708V1930.78C319.708 1931.05 319.791 1931.27 319.957 1931.44C320.123 1931.61 320.337 1931.7 320.597 1931.7C320.864 1931.7 321.084 1931.62 321.256 1931.45C321.429 1931.28 321.515 1931.06 321.515 1930.78V1926.83H325.47C325.737 1926.83 325.955 1926.75 326.124 1926.58C326.294 1926.41 326.378 1926.2 326.378 1925.95C326.378 1925.68 326.294 1925.45 326.124 1925.29C325.955 1925.12 325.737 1925.03 325.47 1925.03H321.515V1921.09C321.515 1920.81 321.429 1920.59 321.256 1920.42C321.084 1920.24 320.864 1920.16 320.597 1920.16C320.337 1920.16 320.123 1920.24 319.957 1920.42C319.791 1920.59 319.708 1920.81 319.708 1921.09V1925.03H315.763C315.49 1925.03 315.268 1925.12 315.099 1925.29C314.93 1925.45 314.845 1925.68 314.845 1925.95Z" fill="black"/>
</g>
<text id="Design Variations" fill="black" xml:space="preserve" style="white-space: pre" font-family="Inter" font-size="13" font-weight="bold" letter-spacing="0em"><tspan x="263" y="1952.73">Design Variations</tspan></text>
<text id="Symbols are supported in up to nine weights and three scales." fill="black" xml:space="preserve" style="white-space: pre" font-family="Inter" font-size="13" letter-spacing="0em"><tspan x="263" y="1970.73">Symbols are supported in up to nine weights and three scales.</tspan></text>
<text id="For optimal layout with text and other symbols, vertically align" fill="black" xml:space="preserve" style="white-space: pre" font-family="Inter" font-size="13" letter-spacing="0em"><tspan x="263" y="1988.73">For optimal layout with text and other symbols, vertically align</tspan></text>
<text id="symbols with the adjacent text." fill="black" xml:space="preserve" style="white-space: pre" font-family="Inter" font-size="13" letter-spacing="0em"><tspan x="263" y="2006.73">symbols with the adjacent text.</tspan></text>
<path id="Vector_6" d="M776 1919V1933" stroke="#00AEEF" stroke-width="0.5"/>
<g id="Group_4">
<path id="Vector_7" d="M779.311 1933.16C779.571 1933.16 779.773 1933.1 779.916 1932.99C780.059 1932.88 780.176 1932.69 780.268 1932.41L781.527 1928.97H787.289L788.549 1932.41C788.64 1932.69 788.757 1932.88 788.9 1932.99C789.044 1933.1 789.242 1933.16 789.496 1933.16C789.757 1933.16 789.963 1933.08 790.116 1932.94C790.269 1932.8 790.346 1932.6 790.346 1932.36C790.346 1932.21 790.31 1932.03 790.238 1931.83L785.658 1919.63C785.541 1919.33 785.382 1919.11 785.18 1918.96C784.978 1918.81 784.721 1918.73 784.408 1918.73C783.803 1918.73 783.393 1919.03 783.178 1919.62L778.598 1931.84C778.526 1932.04 778.49 1932.22 778.49 1932.37C778.49 1932.61 778.563 1932.81 778.71 1932.95C778.856 1933.09 779.057 1933.16 779.311 1933.16ZM782.006 1927.48L784.379 1920.91H784.428L786.801 1927.48H782.006Z" fill="black"/>
</g>
<path id="Vector_8" d="M793.197 1919V1933" stroke="#00AEEF" stroke-width="0.5"/>
<text id="Margins" fill="black" xml:space="preserve" style="white-space: pre" font-family="Inter" font-size="13" font-weight="bold" letter-spacing="0em"><tspan x="776" y="1952.73">Margins</tspan></text>
<text id="Leading and trailing margins on the left and right side of each symbol" fill="black" xml:space="preserve" style="white-space: pre" font-family="Inter" font-size="13" letter-spacing="0em"><tspan x="776" y="1970.73">Leading and trailing margins on the left and right side of each symbol</tspan></text>
<text id="can be adjusted by modifying the x-location of the margin guidelines." fill="black" xml:space="preserve" style="white-space: pre" font-family="Inter" font-size="13" letter-spacing="0em"><tspan x="776" y="1988.73">can be adjusted by modifying the x-location of the margin guidelines.</tspan></text>
<text id="Modifications are automatically applied proportionally to all" fill="black" xml:space="preserve" style="white-space: pre" font-family="Inter" font-size="13" letter-spacing="0em"><tspan x="776" y="2006.73">Modifications are automatically applied proportionally to all</tspan></text>
<text id="scales and weights." fill="black" xml:space="preserve" style="white-space: pre" font-family="Inter" font-size="13" letter-spacing="0em"><tspan x="776" y="2024.73">scales and weights.</tspan></text>
<g id="Group_5">
<path id="Vector_9" d="M1291.84 1934.87L1293.54 1936.57C1293.97 1937.01 1294.42 1937.21 1294.9 1937.18C1295.38 1937.15 1295.85 1936.87 1296.31 1936.36L1307.01 1924.57L1306.04 1923.6L1295.43 1935.28C1295.25 1935.48 1295.07 1935.59 1294.89 1935.62C1294.71 1935.64 1294.51 1935.54 1294.27 1935.3L1293.1 1934.14C1292.87 1933.91 1292.76 1933.7 1292.79 1933.52C1292.82 1933.34 1292.94 1933.16 1293.14 1932.98L1304.62 1922.18L1303.64 1921.21L1292.05 1932.1C1291.55 1932.56 1291.29 1933.02 1291.25 1933.5C1291.22 1933.97 1291.41 1934.43 1291.84 1934.87ZM1298.26 1916.67C1298.05 1916.87 1297.93 1917.1 1297.91 1917.37C1297.88 1917.63 1297.93 1917.85 1298.04 1918.05C1298.16 1918.23 1298.33 1918.37 1298.56 1918.46C1298.78 1918.55 1299.06 1918.56 1299.38 1918.48C1300.11 1918.31 1300.85 1918.24 1301.6 1918.27C1302.35 1918.3 1303.08 1918.55 1303.79 1919.02L1303.21 1920.47C1303.04 1920.89 1302.99 1921.25 1303.07 1921.56C1303.14 1921.87 1303.31 1922.16 1303.58 1922.43L1305.87 1924.75C1306.12 1925 1306.35 1925.14 1306.58 1925.18C1306.81 1925.22 1307.06 1925.21 1307.34 1925.16L1308.4 1924.96L1309.07 1925.64L1309.03 1926.19C1309.01 1926.44 1309.04 1926.67 1309.12 1926.88C1309.2 1927.09 1309.36 1927.31 1309.61 1927.55L1310.37 1928.29C1310.61 1928.53 1310.87 1928.66 1311.15 1928.67C1311.44 1928.68 1311.7 1928.57 1311.93 1928.33L1314.84 1925.41C1315.07 1925.18 1315.19 1924.92 1315.18 1924.65C1315.18 1924.37 1315.05 1924.11 1314.81 1923.87L1314.04 1923.11C1313.8 1922.87 1313.58 1922.7 1313.38 1922.61C1313.17 1922.53 1312.95 1922.49 1312.71 1922.51L1312.13 1922.56L1311.49 1921.93L1311.73 1920.8C1311.8 1920.52 1311.79 1920.26 1311.7 1920.02C1311.6 1919.77 1311.41 1919.5 1311.12 1919.21L1308.92 1917.02C1308.09 1916.2 1307.2 1915.58 1306.26 1915.16C1305.32 1914.75 1304.37 1914.53 1303.42 1914.52C1302.47 1914.5 1301.55 1914.68 1300.66 1915.04C1299.78 1915.41 1298.98 1915.95 1298.26 1916.67ZM1299.75 1917.04C1300.36 1916.6 1301.01 1916.28 1301.7 1916.1C1302.39 1915.91 1303.1 1915.85 1303.8 1915.92C1304.51 1915.98 1305.2 1916.17 1305.87 1916.49C1306.54 1916.8 1307.15 1917.24 1307.7 1917.79L1310.13 1920.21C1310.25 1920.32 1310.32 1920.44 1310.35 1920.55C1310.38 1920.66 1310.38 1920.8 1310.34 1920.97L1310.02 1922.45L1311.52 1923.94L1312.51 1923.88C1312.63 1923.87 1312.72 1923.88 1312.79 1923.9C1312.85 1923.93 1312.94 1923.99 1313.03 1924.08L1313.61 1924.66L1311.17 1927.1L1310.59 1926.53C1310.49 1926.43 1310.43 1926.35 1310.41 1926.28C1310.38 1926.22 1310.37 1926.12 1310.38 1925.99L1310.45 1925.01L1308.95 1923.53L1307.43 1923.78C1307.26 1923.81 1307.14 1923.82 1307.04 1923.8C1306.95 1923.77 1306.84 1923.7 1306.71 1923.59L1304.71 1921.58C1304.58 1921.47 1304.51 1921.35 1304.49 1921.25C1304.48 1921.14 1304.51 1920.99 1304.59 1920.81L1305.46 1918.72C1304.68 1917.99 1303.8 1917.49 1302.83 1917.21C1301.85 1916.93 1300.86 1916.94 1299.84 1917.24C1299.76 1917.26 1299.71 1917.24 1299.69 1917.19C1299.67 1917.15 1299.69 1917.1 1299.75 1917.04Z" fill="black"/>
</g>
<text id="Exporting" fill="black" xml:space="preserve" style="white-space: pre" font-family="Inter" font-size="13" font-weight="bold" letter-spacing="0em"><tspan x="1289" y="1952.73">Exporting</tspan></text>
<text id="Symbols should be outlined when exporting to ensure the" fill="black" xml:space="preserve" style="white-space: pre" font-family="Inter" font-size="13" letter-spacing="0em"><tspan x="1289" y="1970.73">Symbols should be outlined when exporting to ensure the</tspan></text>
<text id="design is preserved when submitting to Xcode." fill="black" xml:space="preserve" style="white-space: pre" font-family="Inter" font-size="13" letter-spacing="0em"><tspan x="1289" y="1988.73">design is preserved when submitting to Xcode.</tspan></text>
<text id="template-version" fill="black" xml:space="preserve" style="white-space: pre" font-family="Inter" font-size="13" letter-spacing="0em"><tspan x="2946" y="1932.73">Template v.3.0</tspan></text>
<text id="Requires Xcode 13 or greater" fill="black" xml:space="preserve" style="white-space: pre" font-family="Inter" font-size="13" letter-spacing="0em"><tspan x="2857" y="1950.73">Requires Xcode 13 or greater</tspan></text>
<text id="descriptive-name" fill="black" xml:space="preserve" style="white-space: pre" font-family="Inter" font-size="13" letter-spacing="0em"><tspan x="2884" y="1968.73">Generated from cloud.fill</tspan></text>
<text id="Typeset at 100 points" fill="black" xml:space="preserve" style="white-space: pre" font-family="Inter" font-size="13" letter-spacing="0em"><tspan x="2903" y="1986.73">Typeset at 100 points</tspan></text>
<text id="Small" fill="black" xml:space="preserve" style="white-space: pre" font-family="Inter" font-size="13" letter-spacing="0em"><tspan x="263" y="725.727">Small</tspan></text>
<text id="Medium_2" fill="black" xml:space="preserve" style="white-space: pre" font-family="Inter" font-size="13" letter-spacing="0em"><tspan x="263" y="1155.73">Medium</tspan></text>
<text id="Large" fill="black" xml:space="preserve" style="white-space: pre" font-family="Inter" font-size="13" letter-spacing="0em"><tspan x="263" y="1585.73">Large</tspan></text>
</g>
<g id="Guides">
<g id="H-reference">
<path id="Vector_10" d="M339.993 696H342.638L368.328 628.867H369.03V625.541H367.123L339.993 696ZM350.688 671.52H385.982L385.231 669.271H351.438L350.688 671.52ZM394.119 696H396.764L369.638 625.541H368.433V628.867L394.119 696Z" fill="#27AAE1"/>
</g>
<path id="Baseline-S" d="M263 696H3036" stroke="#27AAE1" stroke-width="0.5"/>
<path id="Capline-S" d="M263 625.541H3036" stroke="#27AAE1" stroke-width="0.5"/>
<g id="H-reference_2">
<path id="Vector_11" d="M339.993 1126H342.638L368.328 1058.87H369.03V1055.54H367.123L339.993 1126ZM350.688 1101.52H385.982L385.231 1099.27H351.438L350.688 1101.52ZM394.119 1126H396.764L369.638 1055.54H368.433V1058.87L394.119 1126Z" fill="#27AAE1"/>
</g>
<path id="Baseline-M" d="M263 1126H3036" stroke="#27AAE1" stroke-width="0.5"/>
<path id="Capline-M" d="M263 1055.54H3036" stroke="#27AAE1" stroke-width="0.5"/>
<g id="H-reference_3">
<path id="Vector_12" d="M339.993 1556H342.638L368.328 1488.87H369.03V1485.54H367.123L339.993 1556ZM350.688 1531.52H385.982L385.231 1529.27H351.438L350.688 1531.52ZM394.119 1556H396.764L369.638 1485.54H368.433V1488.87L394.119 1556Z" fill="#27AAE1"/>
</g>
<path id="Baseline-L" d="M263 1556H3036" stroke="#27AAE1" stroke-width="0.5"/>
<path id="Capline-L" d="M263 1485.54H3036" stroke="#27AAE1" stroke-width="0.5"/>
<path id="left-margin-Ultralight-S" d="M508.93 600.785V720.121" stroke="#00AEEF" stroke-width="0.5"/>
<path id="right-margin-Ultralight-S" d="M610.493 600.785V720.121" stroke="#00AEEF" stroke-width="0.5"/>
<path id="left-margin-Regular-S" d="M1398.09 600.785V720.121" stroke="#00AEEF" stroke-width="0.5"/>
<path id="right-margin-Regular-S" d="M1501.6 600.785V720.121" stroke="#00AEEF" stroke-width="0.5"/>
<path id="left-margin-Black-S" d="M2877.25 600.785V720.121" stroke="#00AEEF" stroke-width="0.5"/>
<path id="right-margin-Black-S" d="M2989.55 600.785V720.121" stroke="#00AEEF" stroke-width="0.5"/>
</g>
<g id="Symbols">
<g id="Black-S">
<g id="Vector_13">
<path d="M2935.82 678.053C2935.87 677.837 2935.89 677.614 2935.89 677.385C2935.89 674.976 2936.08 673.05 2936.47 671.605C2936.91 670.16 2937.52 669.004 2938.3 668.137C2939.07 667.27 2939.92 666.523 2940.85 665.897C2941.82 665.271 2942.82 664.62 2943.84 663.946C2944.86 663.224 2945.83 662.333 2946.76 661.273C2947.73 660.165 2948.6 658.696 2949.38 656.866C2950.01 655.324 2950.33 653.638 2950.33 651.808C2950.33 649.4 2949.72 647.039 2948.51 644.727C2947.29 642.415 2945.47 640.513 2943.04 639.019C2940.61 637.526 2937.54 636.78 2933.85 636.78C2931.32 636.78 2929.06 637.285 2927.07 638.297C2925.07 639.26 2923.37 640.537 2921.96 642.126C2920.6 643.668 2919.55 645.329 2918.82 647.112C2918.1 648.894 2917.73 650.556 2917.73 652.097C2917.73 653.686 2918.14 655.011 2918.97 656.071C2919.8 657.13 2921.04 657.66 2922.69 657.66C2923.95 657.66 2925.02 657.227 2925.9 656.36C2926.77 655.445 2927.21 654.385 2927.21 653.181C2927.21 651.736 2926.6 650.556 2925.39 649.64C2925.14 649.496 2925.02 649.327 2925.02 649.135C2925.02 648.99 2925.05 648.894 2925.1 648.846C2925.63 647.063 2926.7 645.618 2928.3 644.511C2929.96 643.403 2931.88 642.849 2934.07 642.849C2936.55 642.849 2938.51 643.306 2939.97 644.222C2941.48 645.089 2942.55 646.172 2943.18 647.473C2943.81 648.725 2944.13 649.978 2944.13 651.23V651.808C2944.13 651.952 2944.11 652.097 2944.06 652.241C2943.86 653.831 2943.38 655.156 2942.6 656.215C2941.87 657.227 2940.97 658.166 2939.9 659.033C2938.88 659.852 2937.79 660.719 2936.62 661.634C2935.5 662.549 2934.43 663.657 2933.41 664.958C2932.44 666.258 2931.64 667.896 2931 669.871C2930.37 671.846 2930.03 674.35 2929.98 677.385C2929.98 677.55 2929.99 677.709 2930.02 677.864C2923.73 677.029 2918.41 674.379 2916.26 672.935C2905.62 678.123 2900.39 672.79 2899.1 669.475C2895.67 661.26 2901.24 653.477 2902.53 653.477C2901.1 653.189 2898.24 647.856 2899.1 642.667C2900.4 634.789 2907.39 631.569 2911.11 630.992C2911.11 625.112 2916.83 621.335 2919.69 620.182C2927.58 617.761 2933.84 622.344 2933.84 623.209C2933.84 622.344 2940.71 618.02 2948.43 620.182C2954.6 621.912 2957.29 628.11 2957.86 630.992C2961.29 630.992 2968.59 635.749 2968.59 642.667C2968.59 648.202 2966.58 652.18 2965.58 653.477C2969.44 656.936 2971.59 661.692 2968.59 669.475C2966.18 675.702 2956.43 674.376 2951.86 672.935C2949.37 674.519 2942.95 677.555 2935.82 678.053Z" fill="black"/>
<path d="M2928.88 689.11H2937.42V696.135H2928.88V689.11Z" fill="black"/>
<path d="M2933.17 693.75C2931.98 693.75 2930.97 693.315 2930.14 692.446C2929.3 691.62 2928.88 690.62 2928.88 689.446C2928.88 688.316 2929.3 687.338 2930.14 686.512C2930.97 685.643 2931.98 685.208 2933.17 685.208C2934.36 685.208 2935.37 685.643 2936.21 686.512C2937.04 687.338 2937.46 688.316 2937.46 689.446C2937.46 690.62 2937.04 691.62 2936.21 692.446C2935.37 693.315 2934.36 693.75 2933.17 693.75Z" fill="black"/>
<path d="M2933.17 700.774C2931.98 700.774 2930.97 700.34 2930.14 699.47C2929.3 698.644 2928.88 697.644 2928.88 696.471C2928.88 695.34 2929.3 694.362 2930.14 693.536C2930.97 692.667 2931.98 692.232 2933.17 692.232C2934.36 692.232 2935.37 692.667 2936.21 693.536C2937.04 694.362 2937.46 695.34 2937.46 696.471C2937.46 697.644 2937.04 698.644 2936.21 699.47C2935.37 700.34 2934.36 700.774 2933.17 700.774Z" fill="black"/>
</g>
</g>
<g id="Regular-S">
<g id="Vector_14">
<path d="M1452.62 676.933C1452.66 676.741 1452.68 676.543 1452.68 676.339C1452.68 674.199 1452.85 672.486 1453.2 671.201C1453.59 669.917 1454.13 668.889 1454.82 668.119C1455.51 667.348 1456.27 666.684 1457.09 666.128C1457.95 665.571 1458.84 664.993 1459.75 664.394C1460.65 663.752 1461.52 662.96 1462.34 662.018C1463.2 661.033 1463.98 659.727 1464.67 658.1C1465.23 656.73 1465.51 655.231 1465.51 653.604C1465.51 651.464 1464.97 649.366 1463.89 647.31C1462.81 645.255 1461.19 643.564 1459.03 642.237C1456.87 640.91 1454.15 640.246 1450.86 640.246C1448.62 640.246 1446.61 640.695 1444.84 641.595C1443.06 642.451 1441.55 643.585 1440.3 644.998C1439.09 646.368 1438.16 647.846 1437.51 649.43C1436.86 651.014 1436.54 652.491 1436.54 653.861C1436.54 655.274 1436.91 656.452 1437.64 657.393C1438.37 658.335 1439.48 658.806 1440.95 658.806C1442.07 658.806 1443.02 658.421 1443.8 657.65C1444.58 656.837 1444.97 655.895 1444.97 654.825C1444.97 653.54 1444.43 652.491 1443.34 651.678C1443.13 651.549 1443.02 651.399 1443.02 651.228C1443.02 651.1 1443.04 651.014 1443.09 650.971C1443.56 649.387 1444.51 648.103 1445.94 647.118C1447.41 646.133 1449.11 645.641 1451.06 645.641C1453.26 645.641 1455.01 646.047 1456.31 646.861C1457.65 647.632 1458.6 648.595 1459.16 649.751C1459.72 650.864 1460 651.977 1460 653.091V653.604C1460 653.733 1459.98 653.861 1459.94 653.99C1459.77 655.403 1459.33 656.58 1458.64 657.522C1457.99 658.421 1457.2 659.256 1456.24 660.027C1455.34 660.755 1454.36 661.525 1453.33 662.339C1452.33 663.152 1451.38 664.137 1450.48 665.293C1449.61 666.449 1448.9 667.905 1448.34 669.66C1447.77 671.416 1447.47 673.642 1447.43 676.339C1447.43 676.486 1447.44 676.628 1447.46 676.765C1441.87 676.023 1437.14 673.667 1435.23 672.384C1425.77 676.996 1421.12 672.255 1419.98 669.309C1416.93 662.006 1421.88 655.088 1423.03 655.088C1421.76 654.831 1419.22 650.091 1419.98 645.479C1421.14 638.477 1427.35 635.614 1430.65 635.101C1430.65 629.874 1435.74 626.518 1438.28 625.493C1445.29 623.34 1450.86 627.414 1450.86 628.183C1450.86 627.414 1456.96 623.571 1463.82 625.493C1469.31 627.03 1471.7 632.539 1472.21 635.101C1475.26 635.101 1481.74 639.329 1481.74 645.479C1481.74 650.399 1479.96 653.935 1479.07 655.088C1482.51 658.163 1484.41 662.39 1481.74 669.309C1479.61 674.843 1470.94 673.665 1466.87 672.384C1464.66 673.792 1458.95 676.49 1452.62 676.933Z" fill="black"/>
<path d="M1446.45 686.762H1454.04V693.006H1446.45V686.762Z" fill="black"/>
<path d="M1450.26 690.886C1449.21 690.886 1448.31 690.5 1447.57 689.727C1446.82 688.993 1446.45 688.104 1446.45 687.061C1446.45 686.056 1446.82 685.187 1447.57 684.452C1448.31 683.68 1449.21 683.293 1450.26 683.293C1451.32 683.293 1452.22 683.68 1452.96 684.452C1453.7 685.187 1454.08 686.056 1454.08 687.061C1454.08 688.104 1453.7 688.993 1452.96 689.727C1452.22 690.5 1451.32 690.886 1450.26 690.886Z" fill="black"/>
<path d="M1450.26 697.13C1449.21 697.13 1448.31 696.743 1447.57 695.971C1446.82 695.236 1446.45 694.348 1446.45 693.304C1446.45 692.3 1446.82 691.43 1447.57 690.696C1448.31 689.923 1449.21 689.537 1450.26 689.537C1451.32 689.537 1452.22 689.923 1452.96 690.696C1453.7 691.43 1454.08 692.3 1454.08 693.304C1454.08 694.348 1453.7 695.236 1452.96 695.971C1452.22 696.743 1451.32 697.13 1450.26 697.13Z" fill="black"/>
</g>
</g>
<g id="Ultralight-S">
<g id="Vector_15">
<path d="M561.566 676.435C561.607 676.249 561.627 676.057 561.627 675.86C561.627 673.786 561.794 672.127 562.129 670.883C562.506 669.638 563.029 668.643 563.699 667.896C564.369 667.15 565.102 666.507 565.897 665.968C566.734 665.428 567.593 664.868 568.472 664.288C569.351 663.665 570.188 662.898 570.984 661.986C571.821 661.032 572.575 659.767 573.245 658.19C573.789 656.863 574.061 655.411 574.061 653.835C574.061 651.761 573.538 649.729 572.491 647.738C571.444 645.747 569.874 644.109 567.781 642.823C565.688 641.537 563.05 640.894 559.869 640.894C557.692 640.894 555.745 641.33 554.028 642.201C552.312 643.03 550.847 644.13 549.632 645.498C548.46 646.826 547.56 648.257 546.932 649.791C546.304 651.326 545.99 652.757 545.99 654.084C545.99 655.453 546.346 656.594 547.058 657.506C547.769 658.419 548.837 658.875 550.26 658.875C551.349 658.875 552.27 658.502 553.024 657.755C553.777 656.967 554.154 656.054 554.154 655.017C554.154 653.773 553.631 652.757 552.584 651.969C552.375 651.844 552.27 651.699 552.27 651.533C552.27 651.409 552.291 651.326 552.333 651.284C552.793 649.75 553.714 648.505 555.096 647.551C556.519 646.598 558.173 646.121 560.057 646.121C562.192 646.121 563.888 646.515 565.144 647.303C566.441 648.049 567.362 648.982 567.907 650.102C568.451 651.181 568.723 652.259 568.723 653.338V653.835C568.723 653.96 568.702 654.084 568.66 654.209C568.493 655.577 568.074 656.718 567.404 657.631C566.776 658.502 566.002 659.31 565.081 660.057C564.202 660.762 563.26 661.509 562.255 662.297C561.292 663.085 560.371 664.039 559.492 665.159C558.654 666.279 557.964 667.689 557.419 669.389C556.875 671.09 556.582 673.247 556.54 675.86C556.54 676.002 556.55 676.139 556.571 676.273C551.153 675.554 546.572 673.271 544.721 672.028C535.561 676.496 531.055 671.904 529.947 669.049C526.992 661.975 531.794 655.272 532.902 655.272C531.671 655.024 529.208 650.432 529.947 645.964C531.069 639.18 537.088 636.407 540.289 635.911C540.289 630.847 545.214 627.595 547.676 626.602C554.472 624.517 559.865 628.464 559.865 629.209C559.865 628.464 565.774 624.74 572.423 626.602C577.741 628.092 580.056 633.428 580.548 635.911C583.503 635.911 589.782 640.006 589.782 645.964C589.782 650.73 588.058 654.155 587.197 655.272C590.521 658.251 592.368 662.347 589.782 669.049C587.714 674.411 579.317 673.269 575.377 672.028C573.235 673.392 567.703 676.006 561.566 676.435Z" fill="black"/>
<path d="M555.593 685.957H562.946V692.005H555.593V685.957Z" fill="black"/>
<path d="M559.287 689.952C558.264 689.952 557.393 689.578 556.673 688.829C555.953 688.118 555.593 687.257 555.593 686.246C555.593 685.273 555.953 684.431 556.673 683.719C557.393 682.971 558.264 682.596 559.287 682.596C560.31 682.596 561.181 682.971 561.901 683.719C562.62 684.431 562.98 685.273 562.98 686.246C562.98 687.257 562.62 688.118 561.901 688.829C561.181 689.578 560.31 689.952 559.287 689.952Z" fill="black"/>
<path d="M559.287 696.001C558.264 696.001 557.393 695.626 556.673 694.878C555.953 694.167 555.593 693.306 555.593 692.295C555.593 691.322 555.953 690.479 556.673 689.768C557.393 689.019 558.264 688.645 559.287 688.645C560.31 688.645 561.181 689.019 561.901 689.768C562.62 690.479 562.98 691.322 562.98 692.295C562.98 693.306 562.62 694.167 561.901 694.878C561.181 695.626 560.31 696.001 559.287 696.001Z" fill="black"/>
</g>
</g>
</g>
</g>
<defs>
<clipPath id="clip0_564_821">
<rect width="3300" height="2200" fill="white"/>
</clipPath>
</defs>
</svg>
